<?xml version="1.0" standalone="no"?>
<!DOCTYPE svg PUBLIC "-//W3C//DTD SVG 20010904//EN"
 "http://www.w3.org/TR/2001/REC-SVG-20010904/DTD/svg10.dtd">
<svg version="1.0" xmlns="http://www.w3.org/2000/svg"
 width="804.000000pt" height="804.000000pt" viewBox="0 0 804.000000 804.000000"
 preserveAspectRatio="xMidYMid meet">
<metadata>
Created by potrace 1.14, written by Peter Selinger 2001-2017
</metadata>
<g transform="translate(0.000000,804.000000) scale(0.100000,-0.100000)"
fill="#000000" stroke="none">
<path d="M1254 7973 c-16 -39 9 -103 42 -103 33 0 74 17 80 34 8 21 -26 63
-60 76 -40 14 -53 13 -62 -7z"/>
<path d="M3661 7841 c-12 -21 -12 -102 -1 -120 19 -32 160 -9 160 25 0 44 -59
102 -114 111 -28 4 -36 1 -45 -16z"/>
<path d="M6295 7572 c-32 -7 -45 -22 -45 -53 0 -70 48 -111 100 -84 29 15 60
51 60 70 -1 33 -75 76 -115 67z"/>
<path d="M3199 7486 c-21 -10 -24 -18 -23 -66 1 -98 18 -130 68 -130 82 0 145
43 130 86 -27 71 -127 135 -175 110z"/>
<path d="M6595 7444 c-79 -29 -118 -94 -92 -156 16 -37 61 -89 92 -105 32 -17
111 -10 142 13 48 36 66 70 71 131 3 48 0 63 -17 85 -37 46 -120 60 -196 32z"/>
<path d="M4576 7435 c-10 -28 -7 -83 7 -92 6 -4 29 -8 50 -9 57 -1 68 27 29
75 -32 40 -75 53 -86 26z"/>
<path d="M5100 7389 c-67 -14 -80 -58 -47 -154 30 -85 86 -107 170 -66 106 51
117 133 24 190 -43 26 -104 39 -147 30z"/>
<path d="M4154 7309 c-3 -5 -9 -7 -14 -4 -24 15 -20 -57 6 -112 20 -44 29 -48
78 -32 72 22 102 63 73 99 -31 39 -129 72 -143 49z"/>
<path d="M2501 7268 c-79 -21 -118 -83 -91 -147 14 -35 74 -97 111 -117 24
-12 32 -11 80 14 43 21 59 37 78 74 21 43 24 60 19 114 -2 19 -54 64 -76 65
-69 5 -91 5 -121 -3z"/>
<path d="M3876 7143 c-14 -7 -27 -17 -27 -21 -9 -51 7 -130 39 -184 20 -34 47
-36 116 -9 120 45 128 124 19 188 -59 34 -113 44 -147 26z"/>
<path d="M4173 6987 c-22 -24 -23 -52 -3 -112 13 -39 44 -74 68 -75 21 0 92
24 92 32 0 5 6 8 14 8 7 0 19 7 26 15 45 55 -33 142 -135 150 -34 3 -47 -1
-62 -18z"/>
<path d="M4508 6986 c-20 -15 -39 -88 -27 -107 4 -7 6 -17 3 -21 -7 -10 42
-22 94 -22 59 0 79 21 62 66 -12 31 -64 88 -81 88 -4 0 -13 2 -21 5 -7 2 -21
-1 -30 -9z"/>
<path d="M6130 6991 c-113 -34 -171 -122 -136 -205 19 -47 90 -113 130 -123
124 -30 240 80 223 210 -6 44 -28 80 -62 103 -27 18 -116 26 -155 15z"/>
<path d="M2011 6916 c-17 -30 -17 -89 -2 -143 l12 -43 58 0 c65 0 117 15 125
35 26 68 -77 175 -169 175 -6 0 -17 -11 -24 -24z"/>
<path d="M5322 6918 c-52 -25 -42 -145 15 -180 24 -14 32 -14 75 -1 57 16 98
48 98 75 0 64 -127 136 -188 106z"/>
<path d="M2440 6891 c-8 -6 -17 -8 -21 -5 -4 2 -12 -3 -19 -11 -7 -8 -16 -15
-21 -15 -12 0 -52 -43 -71 -77 -52 -91 18 -202 139 -219 97 -13 198 87 187
185 -7 61 -39 116 -77 134 -38 19 -94 22 -117 8z"/>
<path d="M5623 6874 c-20 -20 -23 -31 -19 -67 6 -44 38 -121 62 -145 8 -7 14
-10 14 -6 0 5 5 3 11 -3 15 -15 131 28 166 62 42 43 17 109 -59 150 -69 38
-143 41 -175 9z"/>
<path d="M721 6708 c-90 -24 -108 -101 -43 -192 26 -37 94 -72 114 -60 5 3 20
8 35 10 29 5 65 39 87 82 33 63 22 110 -33 140 -45 26 -109 33 -160 20z"/>
<path d="M4709 6716 c-3 -3 -14 -7 -25 -9 -66 -12 -156 -82 -189 -146 -48 -94
-9 -200 97 -267 88 -56 223 -32 297 52 53 61 67 126 44 217 -16 68 -43 108
-91 135 -24 13 -124 27 -133 18z"/>
<path d="M4165 6700 c-16 -3 -40 -12 -52 -19 -13 -6 -23 -9 -23 -6 0 3 -10 -3
-22 -15 -12 -11 -24 -20 -27 -20 -12 0 -54 -71 -61 -102 -15 -71 71 -168 162
-182 59 -9 156 57 185 124 14 34 9 103 -12 149 -25 56 -88 86 -150 71z"/>
<path d="M3682 6636 c-40 -7 -63 -18 -89 -42 -33 -31 -35 -38 -31 -78 7 -62
59 -131 107 -143 48 -12 106 -1 135 26 32 30 66 102 66 140 0 69 -88 114 -188
97z"/>
<path d="M5325 6625 c-22 -6 -53 -19 -70 -28 -40 -21 -115 -90 -115 -105 0 -6
-4 -12 -9 -12 -13 0 -50 -80 -65 -138 -11 -44 -12 -70 -3 -133 5 -33 42 -96
75 -127 40 -39 136 -82 199 -90 252 -34 452 251 327 466 -80 138 -215 204
-339 167z"/>
<path d="M2030 6511 c-29 -15 -37 -26 -44 -63 -8 -39 -5 -53 17 -101 33 -73
72 -98 141 -92 44 3 56 10 93 48 81 85 73 162 -23 206 -56 27 -137 28 -184 2z"/>
<path d="M5875 6523 c-57 -16 -77 -89 -45 -167 26 -66 56 -95 101 -101 62 -8
98 5 150 56 43 41 49 53 49 88 0 45 -24 77 -80 106 -34 18 -138 29 -175 18z"/>
<path d="M2623 6456 c-125 -40 -186 -131 -143 -216 31 -62 106 -128 155 -138
51 -11 100 -2 154 28 42 24 80 95 87 162 2 21 4 41 5 45 1 5 0 11 -1 16 -1 4
-3 10 -5 15 -24 87 -132 125 -252 88z"/>
<path d="M6266 6268 c-22 -31 -22 -124 0 -132 27 -10 88 -6 106 8 41 30 -25
146 -83 146 -5 0 -15 -10 -23 -22z"/>
<path d="M1909 6180 c-15 -10 -20 -83 -8 -126 8 -29 12 -31 63 -33 57 -2 86
14 86 48 0 23 -79 107 -106 113 -12 3 -28 2 -35 -2z"/>
<path d="M2234 6095 c-13 -13 -24 -33 -25 -45 -2 -34 -1 -70 1 -75 4 -8 7 -19
15 -52 4 -18 13 -37 20 -43 38 -32 152 -16 205 28 29 25 32 32 26 63 -12 65
-96 133 -175 143 -36 4 -47 1 -67 -19z"/>
<path d="M5975 6053 c-27 -9 -51 -19 -53 -24 -2 -5 -10 -9 -19 -9 -8 0 -21 -7
-29 -15 -8 -8 -23 -20 -32 -27 -31 -23 -79 -92 -92 -132 -35 -109 6 -204 121
-283 84 -56 196 -57 284 -3 88 54 137 133 138 223 1 200 -142 322 -318 270z"/>
<path d="M3858 6045 c-2 -2 -23 -6 -48 -9 -109 -14 -129 -18 -205 -36 -83 -19
-232 -67 -297 -94 -21 -9 -41 -17 -45 -17 -36 -6 -395 -213 -413 -239 -3 -4
-12 -11 -21 -16 -78 -44 -318 -283 -416 -412 -79 -107 -137 -193 -136 -202 0
-3 -8 -17 -18 -31 -51 -72 -169 -363 -185 -455 -3 -16 -9 -42 -14 -59 -5 -16
-12 -48 -15 -70 -3 -23 -8 -52 -10 -65 -17 -87 -27 -528 -13 -605 3 -16 9 -52
13 -80 18 -127 69 -299 127 -435 49 -114 163 -321 180 -328 4 -2 8 -8 8 -13 0
-8 60 -94 95 -136 72 -86 102 -119 170 -188 94 -95 198 -185 214 -185 6 0 11
-4 11 -8 0 -23 330 -217 446 -263 72 -28 160 -60 174 -64 8 -1 35 -9 60 -16
61 -17 62 -17 85 -22 138 -29 238 -40 400 -41 72 -1 140 2 153 6 13 5 22 3 22
-3 0 -6 4 -8 9 -5 4 3 35 8 67 11 87 7 146 14 174 21 14 3 36 7 50 9 29 5 64
13 68 15 2 3 4 3 52 14 101 23 407 150 455 188 6 5 51 33 100 64 50 30 95 62
101 70 6 7 14 14 19 14 6 0 77 57 153 125 36 31 132 129 177 180 59 66 179
233 231 321 54 92 120 226 126 254 2 8 6 17 9 20 6 5 69 182 74 209 2 9 8 34
14 56 10 39 13 53 32 165 27 156 29 454 4 579 -2 12 -6 42 -9 65 -3 23 -7 49
-10 57 -3 7 -7 25 -10 39 -10 58 -66 231 -100 315 -165 400 -446 743 -801 979
-66 44 -143 86 -327 177 -21 10 -144 52 -173 59 -5 1 -17 6 -25 10 -8 4 -32
11 -54 14 -21 4 -42 9 -47 12 -5 3 -17 7 -26 8 -38 7 -161 26 -208 32 -55 7
-441 15 -447 9z"/>
<path d="M1975 5853 c-13 -9 -19 -25 -18 -52 1 -38 28 -126 44 -145 13 -15 99
-7 145 14 40 17 44 22 44 53 0 79 -156 174 -215 130z"/>
<path d="M1367 5738 c-30 -22 -27 -129 4 -149 6 -3 35 -5 66 -4 68 2 87 20 71
66 -12 34 -82 93 -103 86 -7 -3 -15 -1 -17 4 -2 6 -11 4 -21 -3z"/>
<path d="M7104 5743 c-46 -33 -32 -167 21 -191 25 -11 37 -11 99 6 89 25 91
98 5 158 -39 27 -105 41 -125 27z"/>
<path d="M32 5635 c-23 -10 -32 -20 -32 -38 0 -44 22 -89 53 -107 30 -18 31
-18 69 1 46 24 65 57 49 87 -11 20 -71 69 -71 57 0 -3 -8 -1 -18 4 -11 6 -28
5 -50 -4z"/>
<path d="M1712 5587 c-94 -35 -170 -120 -186 -209 -12 -66 57 -164 146 -209
70 -36 179 -22 246 32 52 42 76 95 77 174 3 183 -117 273 -283 212z"/>
<path d="M856 5464 c-32 -23 -24 -102 13 -140 27 -28 33 -29 93 -9 58 20 79
54 58 93 -30 52 -125 85 -164 56z"/>
<path d="M6153 5467 c-28 -12 -37 -52 -23 -108 6 -24 12 -50 14 -58 4 -18 36
-42 48 -35 5 3 24 8 41 11 42 7 84 29 96 51 33 62 -105 171 -176 139z"/>
<path d="M6666 5414 c-27 -9 -55 -21 -62 -29 -8 -7 -17 -15 -22 -17 -19 -8
-49 -59 -47 -80 1 -13 3 -32 4 -44 0 -12 20 -43 43 -69 49 -56 110 -88 144
-75 12 5 25 6 28 3 3 -4 6 -1 6 5 0 7 5 12 11 12 43 0 106 94 113 168 10 110
-89 167 -218 126z"/>
<path d="M1215 5390 c-55 -12 -114 -54 -116 -84 0 -6 -2 -20 -4 -31 -9 -47 70
-165 123 -182 24 -8 39 -9 105 -4 24 1 80 61 107 113 23 44 24 90 2 125 -29
47 -140 79 -217 63z"/>
<path d="M7029 5159 c-24 -24 -24 -69 -1 -129 15 -39 22 -45 47 -46 85 -1 174
59 148 99 -4 7 -8 16 -8 22 0 16 -89 64 -128 69 -29 4 -43 0 -58 -15z"/>
<path d="M6311 5119 c-65 -26 -78 -90 -35 -170 34 -61 59 -78 115 -75 56 3 79
16 120 67 77 97 15 190 -125 188 -28 0 -62 -5 -75 -10z"/>
<path d="M1467 5024 c-3 -3 -22 -7 -43 -10 -102 -13 -231 -125 -279 -244 -21
-52 -27 -146 -13 -196 32 -119 182 -215 325 -209 98 4 182 52 260 148 6 8 9
18 6 21 -4 3 -2 6 4 6 6 0 14 10 18 23 11 32 12 37 15 40 9 11 14 118 7 157
-6 38 -62 133 -98 170 -44 44 -110 82 -150 85 -14 1 -30 5 -36 8 -6 4 -13 4
-16 1z"/>
<path d="M6634 4975 c-13 -9 -19 -29 -21 -69 -3 -66 7 -75 80 -72 83 3 95 56
26 117 -38 33 -63 41 -85 24z"/>
<path d="M6447 4723 c-20 -13 -38 -31 -39 -41 0 -9 -2 -24 -3 -32 -2 -20 18
-59 47 -91 17 -19 34 -26 70 -28 67 -4 85 5 114 54 54 93 8 168 -101 164 -33
-2 -63 -10 -88 -26z"/>
<path d="M845 4650 c-74 -17 -116 -55 -122 -110 -3 -28 24 -110 37 -110 4 0
10 -9 13 -19 12 -46 112 -72 181 -47 56 20 116 113 116 179 0 39 -33 81 -77
98 -36 13 -109 18 -148 9z"/>
<path d="M6605 4399 c-3 -4 -11 -6 -18 -3 -7 2 -37 -10 -67 -28 -93 -55 -119
-139 -67 -213 48 -67 75 -84 144 -89 89 -6 154 37 177 115 27 95 0 183 -65
210 -37 15 -97 20 -104 8z"/>
<path d="M1115 4320 c-11 -4 -23 -6 -26 -4 -4 2 -10 -7 -13 -20 -4 -16 2 -40
17 -68 19 -36 27 -43 52 -43 17 0 47 8 68 19 42 22 49 52 19 79 -27 24 -94 45
-117 37z"/>
<path d="M1417 4201 c-15 -3 -41 -19 -58 -35 -30 -28 -31 -33 -26 -87 6 -66
41 -134 80 -154 16 -8 47 -12 82 -9 47 3 62 9 91 36 67 63 82 135 39 187 -40
47 -137 76 -208 62z"/>
<path d="M7454 4093 c-13 -22 -10 -109 5 -126 11 -14 81 -21 111 -12 43 14 27
80 -30 128 -39 31 -70 35 -86 10z"/>
<path d="M1032 4024 c-72 -19 -135 -66 -164 -123 -38 -73 -27 -131 37 -192 53
-52 62 -57 111 -65 42 -7 51 -7 74 -1 58 15 70 20 70 27 0 5 8 11 19 15 10 3
31 24 47 46 24 36 28 50 27 110 0 90 -29 150 -82 173 -53 23 -80 25 -139 10z"/>
<path d="M6474 3885 c-16 -24 -16 -107 -1 -131 9 -16 120 -12 140 4 41 34 -17
120 -95 143 -24 6 -31 4 -44 -16z"/>
<path d="M1495 3782 c-93 -32 -145 -89 -145 -156 0 -42 49 -110 105 -146 70
-44 199 -1 232 77 65 157 -38 278 -192 225z"/>
<path d="M6872 3768 c-13 -13 -16 -56 -6 -82 6 -16 66 -22 98 -10 33 13 9 66
-41 92 -27 15 -36 15 -51 0z"/>
<path d="M528 3649 c-59 -16 -94 -44 -110 -89 -14 -41 4 -83 56 -134 39 -38
41 -38 99 -33 66 6 94 27 121 91 50 119 -33 201 -166 165z"/>
<path d="M1129 3554 c-8 -10 -13 -43 -14 -85 0 -87 12 -101 89 -101 100 0 130
43 85 121 -38 67 -128 103 -160 65z"/>
<path d="M6678 3565 c-2 -2 -22 -7 -44 -11 -93 -14 -205 -103 -248 -198 -32
-68 -17 -166 30 -214 8 -7 14 -17 14 -21 0 -3 13 -15 30 -24 16 -10 35 -24 43
-31 21 -21 103 -46 152 -46 79 0 180 57 228 128 70 107 50 258 -47 358 -28 29
-54 41 -100 48 -21 4 -42 8 -46 11 -4 2 -9 2 -12 0z"/>
<path d="M846 3484 c-3 -9 -6 -33 -6 -54 0 -35 3 -39 33 -46 29 -7 50 -8 76
-5 18 2 21 33 6 61 -27 53 -95 80 -109 44z"/>
<path d="M7947 3447 c-15 -12 -20 -36 -18 -89 1 -23 6 -27 34 -30 72 -7 98 32
56 86 -29 37 -53 48 -72 33z"/>
<path d="M6963 3155 c-14 -10 -18 -26 -17 -70 0 -30 5 -60 10 -65 6 -6 34 -13
65 -16 46 -5 57 -3 72 14 16 17 16 22 3 53 -26 63 -99 109 -133 84z"/>
<path d="M1365 2896 c-62 -28 -82 -77 -52 -133 23 -43 86 -93 118 -93 36 0 88
38 111 80 24 44 19 117 -8 134 -47 28 -121 33 -169 12z"/>
<path d="M6291 2874 c-59 -18 -101 -37 -101 -46 0 -5 -5 -8 -11 -8 -17 0 -39
-26 -59 -72 -32 -73 1 -152 91 -218 72 -52 156 -49 234 9 62 45 95 157 73 239
-11 40 -62 97 -78 87 -6 -3 -10 -2 -10 2 0 5 -19 10 -42 12 -23 1 -44 3 -47 5
-3 2 -26 -3 -50 -10z"/>
<path d="M6696 2865 c-78 -27 -95 -92 -50 -182 30 -59 73 -83 133 -76 47 6 75
25 111 74 24 33 28 48 25 85 -3 32 -10 50 -27 64 -46 39 -134 55 -192 35z"/>
<path d="M7138 2845 c-2 -2 -19 -6 -38 -9 -47 -7 -84 -49 -75 -85 19 -75 88
-131 137 -112 61 24 110 127 79 165 -12 14 -96 48 -103 41z"/>
<path d="M1820 2823 c-93 -30 -158 -101 -139 -151 5 -13 7 -27 4 -32 -3 -4 2
-13 10 -20 8 -7 15 -17 15 -23 0 -6 18 -27 40 -48 43 -40 94 -52 159 -38 63
14 114 70 124 136 2 13 6 25 10 29 3 4 2 14 -2 23 -10 17 -11 23 -11 45 0 20
-39 59 -73 74 -28 12 -108 15 -137 5z"/>
<path d="M6909 2538 c-25 -61 -7 -176 28 -177 10 0 36 -1 58 -2 82 -3 123 35
102 95 -21 60 -91 116 -144 116 -25 0 -33 -6 -44 -32z"/>
<path d="M6543 2480 c-32 -13 -55 -54 -50 -88 10 -59 74 -147 124 -167 24 -10
32 -8 68 17 66 46 83 62 99 92 30 58 0 113 -78 143 -37 14 -132 15 -163 3z"/>
<path d="M2075 2441 c-144 -67 -230 -225 -188 -346 17 -52 72 -109 133 -140
39 -20 105 -40 120 -38 3 0 27 3 53 6 89 11 185 88 219 176 16 41 18 139 4
176 -71 180 -189 237 -341 166z"/>
<path d="M1642 2398 c-41 -11 -57 -46 -40 -86 20 -46 48 -82 77 -96 25 -13 30
-12 69 12 52 34 84 88 70 119 -20 42 -111 69 -176 51z"/>
<path d="M7500 2275 c-27 -33 -5 -115 36 -134 35 -16 43 -14 79 14 46 34 50
60 15 95 -16 17 -33 31 -37 31 -42 7 -85 4 -93 -6z"/>
<path d="M6943 2272 c-18 -11 -30 -53 -27 -87 5 -43 9 -64 15 -69 12 -12 78
-16 102 -7 22 9 27 17 27 44 0 36 -37 94 -73 114 -26 15 -29 15 -44 5z"/>
<path d="M5660 2118 c-25 -5 -59 -16 -77 -24 -17 -8 -34 -14 -38 -14 -4 0 -33
-26 -64 -58 -122 -124 -156 -279 -89 -401 53 -97 181 -163 306 -157 192 10
342 213 298 406 -13 56 -41 101 -93 153 -77 78 -161 110 -243 95z"/>
<path d="M1696 2112 c-52 -12 -58 -63 -15 -122 23 -30 33 -32 82 -12 16 7 32
12 36 12 5 0 20 11 34 24 31 29 27 61 -12 80 -30 16 -97 25 -125 18z"/>
<path d="M2698 1984 c-2 -1 -15 -4 -28 -6 -70 -11 -157 -81 -189 -154 -42 -97
26 -208 147 -239 86 -22 192 28 231 109 37 74 15 190 -46 248 -24 23 -105 53
-115 42z"/>
<path d="M6685 1918 c-46 -10 -81 -39 -88 -74 -2 -13 6 -46 19 -74 18 -39 32
-54 60 -66 50 -21 97 -11 136 29 38 40 51 73 43 113 -10 54 -92 89 -170 72z"/>
<path d="M921 1864 c-14 -18 -19 -37 -16 -67 5 -74 15 -97 41 -98 13 -1 32 -2
42 -2 40 -2 92 15 106 35 33 46 -43 137 -127 152 -20 3 -32 -2 -46 -20z"/>
<path d="M2263 1846 c-6 -8 -14 -32 -17 -55 -5 -46 8 -59 68 -66 27 -4 35 0
43 17 12 29 -19 91 -54 107 -29 13 -25 13 -40 -3z"/>
<path d="M5018 1744 c-2 -1 -22 -5 -46 -9 -73 -11 -158 -59 -186 -106 -49 -84
-19 -176 88 -267 39 -33 62 -39 136 -37 51 1 76 8 110 28 52 30 71 59 95 140
31 106 7 185 -68 224 -26 13 -123 34 -129 27z"/>
<path d="M3329 1719 c-162 -25 -319 -189 -325 -338 -3 -79 20 -135 81 -195 80
-78 132 -101 235 -101 71 0 94 4 140 26 94 45 171 137 184 219 3 19 8 47 10
62 2 14 0 46 -6 70 -5 23 -11 48 -12 53 -4 25 -66 122 -92 145 -62 55 -128 73
-215 59z"/>
<path d="M1798 1653 c-21 -5 -31 -38 -24 -79 2 -16 5 -37 5 -46 2 -30 27 -45
73 -43 55 3 78 13 87 38 20 54 -80 146 -141 130z"/>
<path d="M2295 1566 c-18 -27 -11 -52 27 -102 l24 -32 39 19 c80 38 95 91 35
121 -52 26 -106 24 -125 -6z"/>
<path d="M4318 1565 c-21 -14 -39 -35 -39 -45 -1 -11 -2 -26 -3 -32 -3 -21 26
-100 53 -145 25 -41 69 -70 106 -68 28 2 84 28 124 59 71 53 90 119 50 170
-25 32 -105 80 -119 71 -5 -3 -10 -2 -10 3 0 5 -28 10 -62 11 -53 1 -69 -2
-100 -24z"/>
<path d="M3914 1539 c-23 -6 -58 -24 -79 -42 -30 -26 -38 -41 -42 -77 -5 -43
-2 -48 41 -94 25 -26 46 -45 46 -41 0 4 6 3 13 -2 34 -26 135 19 158 71 8 18
16 55 18 83 2 45 -1 53 -29 77 -17 14 -38 26 -45 26 -7 0 -19 2 -27 4 -7 2
-32 0 -54 -5z"/>
<path d="M2559 1423 c-26 -6 -38 -46 -35 -114 3 -71 18 -108 44 -110 115 -7
176 10 191 52 28 81 -107 197 -200 172z"/>
<path d="M5353 1354 c-58 -20 -88 -57 -87 -107 1 -63 77 -171 128 -182 51 -12
76 -13 76 -4 0 5 8 9 18 9 20 0 84 65 106 109 44 84 14 150 -79 176 -46 13
-121 13 -162 -1z"/>
<path d="M4185 1206 c-22 -6 -51 -17 -65 -25 -31 -16 -80 -69 -81 -87 -3 -33
-3 -41 4 -71 9 -43 89 -121 133 -129 60 -11 106 4 150 51 33 34 42 52 47 91 9
74 -10 134 -53 159 -26 16 -94 21 -135 11z"/>
<path d="M3712 1202 c-20 -13 -26 -78 -11 -129 7 -27 14 -50 15 -53 0 -3 6
-17 11 -31 11 -25 14 -26 66 -18 63 8 124 34 136 58 22 42 -21 116 -90 155
-46 26 -102 33 -127 18z"/>
<path d="M4500 1195 c-14 -17 -5 -72 17 -97 12 -14 20 -15 46 -5 63 23 72 33
60 59 -11 24 -67 58 -96 58 -8 0 -20 -7 -27 -15z"/>
<path d="M5034 1180 c-73 -33 -81 -92 -19 -155 30 -31 37 -34 81 -30 27 2 50
9 52 15 2 5 7 8 11 6 4 -3 13 -1 21 5 9 5 10 9 3 9 -7 0 -5 13 7 37 11 23 15
44 10 53 -4 8 -8 20 -9 25 -1 15 -29 45 -43 46 -7 0 -27 2 -44 4 -17 2 -48 -5
-70 -15z"/>
<path d="M2468 1066 c-11 -7 -18 -27 -18 -45 0 -31 37 -123 52 -129 4 -2 8
-10 8 -18 0 -11 8 -14 33 -10 17 2 33 5 35 6 1 2 5 3 10 4 4 1 23 10 43 19 47
23 64 58 45 95 -14 27 -56 63 -89 75 -40 15 -102 17 -119 3z"/>
<path d="M2935 1069 c-22 -4 -51 -12 -65 -17 -27 -11 -99 -62 -87 -62 4 0 1
-10 -7 -22 -19 -30 -13 -90 12 -126 68 -95 147 -123 234 -84 44 19 94 72 97
102 0 8 3 37 5 64 7 72 -30 129 -91 141 -10 2 -18 4 -18 5 0 6 -46 5 -80 -1z"/>
<path d="M3408 964 c-2 -1 -16 -5 -30 -8 -34 -6 -109 -57 -137 -92 -11 -15
-25 -42 -30 -61 -10 -37 -4 -103 10 -103 5 0 9 -7 9 -16 0 -20 67 -82 110
-101 31 -14 84 -18 122 -11 36 8 96 50 121 85 66 93 28 260 -68 298 -20 8
-101 15 -107 9z"/>
<path d="M3774 812 c-17 -26 -14 -115 4 -128 8 -6 36 -12 63 -13 37 -1 50 2
57 16 14 26 14 30 -4 64 -35 69 -96 100 -120 61z"/>
<path d="M5396 716 c-27 -26 -26 -49 8 -113 31 -62 40 -65 104 -41 86 32 111
70 74 113 -28 33 -64 52 -114 59 -42 6 -50 4 -72 -18z"/>
<path d="M5634 646 c-24 -13 -24 -63 0 -119 13 -32 17 -35 48 -31 49 7 98 24
99 35 1 5 2 15 3 22 3 17 -31 65 -56 78 -40 21 -74 27 -94 15z"/>
<path d="M3586 577 c-30 -22 -34 -67 -13 -136 l21 -63 59 6 c103 11 140 40
117 95 -25 61 -147 125 -184 98z"/>
<path d="M1211 357 c-8 -10 -33 -97 -27 -97 0 0 19 -7 41 -14 46 -16 75 -6 75
25 0 50 -66 113 -89 86z"/>
<path d="M5657 295 c-10 -7 -21 -31 -24 -53 -6 -41 1 -48 54 -58 42 -8 52 50
18 102 -18 28 -23 29 -48 9z"/>
<path d="M2854 280 c-55 -22 -61 -75 -21 -160 26 -57 35 -65 72 -73 29 -5 108
24 146 55 38 31 45 77 19 114 -35 50 -161 87 -216 64z"/>
</g>
</svg>
